<svg width="24" height="24" viewBox="0 0 24 24" fill="none" xmlns="http://www.w3.org/2000/svg">
<path d="M7.616 19.77C7.168 19.77 6.78667 19.6127 6.472 19.298C6.15733 18.9833 6 18.6023 6 18.155V5.77H5V4.77H9V4H15V4.77H19V5.77H18V18.155C18 18.615 17.846 18.9993 17.538 19.308C17.23 19.6167 16.8453 19.7707 16.384 19.77H7.616ZM17 5.77H7V18.155C7 18.3343 7.05767 18.4817 7.173 18.597C7.28833 18.7123 7.436 18.77 7.616 18.77H16.385C16.5383 18.77 16.6793 18.706 16.808 18.578C16.9367 18.45 17.0007 18.3087 17 18.154V5.77ZM9.808 16.77H10.808V7.77H9.808V16.77ZM13.192 16.77H14.192V7.77H13.192V16.77Z" fill="#EF2727"/>
</svg>
