<svg width="24" height="24" viewBox="0 0 24 24" fill="none" xmlns="http://www.w3.org/2000/svg">
<path d="M6.46198 13C6.18665 13 5.95098 12.902 5.75498 12.706C5.55898 12.51 5.46131 12.2747 5.46198 12C5.46265 11.7253 5.56031 11.49 5.75498 11.294C5.94965 11.098 6.18531 11 6.46198 11C6.73865 11 6.97398 11.098 7.16798 11.294C7.36198 11.49 7.45965 11.7253 7.46098 12C7.46231 12.2747 7.36465 12.51 7.16798 12.706C6.97131 12.902 6.73531 13 6.45998 13M12 13C11.7246 13 11.4893 12.902 11.294 12.706C11.0986 12.51 11.0006 12.2747 11 12C10.9993 11.7253 11.0973 11.49 11.294 11.294C11.4906 11.098 11.726 11 12 11C12.274 11 12.5093 11.098 12.706 11.294C12.9026 11.49 13.0006 11.7253 13 12C12.9993 12.2747 12.9013 12.51 12.706 12.706C12.5106 12.902 12.2753 13 12 13ZM17.539 13C17.2636 13 17.028 12.902 16.832 12.706C16.636 12.51 16.538 12.2747 16.538 12C16.538 11.7253 16.636 11.49 16.832 11.294C17.028 11.098 17.2633 11 17.538 11C17.8126 11 18.0483 11.098 18.245 11.294C18.4416 11.49 18.5393 11.7253 18.538 12C18.5366 12.2747 18.439 12.51 18.245 12.706C18.051 12.902 17.8163 13 17.539 13Z" fill="currentColor" fill-opacity="0.9"/>
</svg>
