<svg width="24" height="24" viewBox="0 0 24 24" fill="none" xmlns="http://www.w3.org/2000/svg">
    <path d="M4.616 20C4.15533 20 3.771 19.846 3.463 19.538C3.155 19.23 3.00067 18.8453 3 18.384V5.616C3 5.15533 3.15433 4.771 3.463 4.463C3.77167 4.155 4.15567 4.00067 4.615 4H19.385C19.845 4 20.229 4.15433 20.537 4.463C20.845 4.77167 20.9993 5.156 21 5.616V18.385C21 18.845 20.8457 19.2293 20.537 19.538C20.2283 19.8467 19.8443 20.0007 19.385 20H4.616ZM4.616 19H19.385C19.5383 19 19.6793 18.936 19.808 18.808C19.9367 18.68 20.0007 18.5387 20 18.384V5.616C20 5.462 19.936 5.32067 19.808 5.192C19.68 5.06333 19.539 4.99933 19.385 5H4.615C4.46167 5 4.32067 5.064 4.192 5.192C4.06333 5.32 3.99933 5.46133 4 5.616V18.385C4 18.5383 4.064 18.6793 4.192 18.808C4.32 18.9367 4.461 19.0007 4.615 19M9 16.5C9.14267 16.5 9.26167 16.4523 9.357 16.357C9.45233 16.2617 9.5 16.1427 9.5 16C9.5 15.8573 9.45233 15.7383 9.357 15.643C9.26167 15.5477 9.14267 15.5 9 15.5H6C5.858 15.5 5.739 15.5477 5.643 15.643C5.547 15.7383 5.49933 15.8573 5.5 16C5.50067 16.1427 5.54833 16.2617 5.643 16.357C5.73767 16.4523 5.85667 16.5 6 16.5H9ZM14.55 12.887L13.479 11.815C13.3817 11.7177 13.2637 11.667 13.125 11.663C12.9863 11.659 12.8683 11.7117 12.771 11.821C12.6777 11.9183 12.6333 12.0363 12.638 12.175C12.6427 12.3137 12.6937 12.4317 12.791 12.529L13.985 13.723C14.1463 13.8843 14.3347 13.965 14.55 13.965C14.7653 13.965 14.954 13.8843 15.116 13.723L18.435 10.403C18.5323 10.3063 18.5843 10.1917 18.591 10.059C18.597 9.927 18.545 9.806 18.435 9.696C18.3243 9.586 18.2053 9.531 18.078 9.531C17.9507 9.531 17.8317 9.586 17.721 9.696L14.55 12.887ZM9 12.5C9.14267 12.5 9.26167 12.4523 9.357 12.357C9.45233 12.2617 9.5 12.1427 9.5 12C9.5 11.8573 9.45233 11.7383 9.357 11.643C9.26167 11.5477 9.14267 11.5 9 11.5H6C5.858 11.5 5.739 11.5477 5.643 11.643C5.547 11.7383 5.49933 11.8573 5.5 12C5.50067 12.1427 5.54833 12.2617 5.643 12.357C5.73767 12.4523 5.85667 12.5 6 12.5H9ZM9 8.5C9.14267 8.5 9.26167 8.45233 9.357 8.357C9.45233 8.26167 9.5 8.14267 9.5 8C9.5 7.85733 9.45233 7.73833 9.357 7.643C9.26167 7.54767 9.14267 7.5 9 7.5H6C5.858 7.5 5.739 7.54767 5.643 7.643C5.547 7.73833 5.49933 7.85733 5.5 8C5.50067 8.14267 5.54833 8.26167 5.643 8.357C5.73767 8.45233 5.85667 8.5 6 8.5H9Z" fill="black" fill-opacity="0.9"/>
</svg>
