<svg width="96" height="96" viewBox="0 0 150 96" fill="none" xmlns="http://www.w3.org/2000/svg">
<g filter="url(#filter0_dddd_20061_6267)">
<path fill-rule="evenodd" clip-rule="evenodd" d="M80.4398 19.7627C79.6822 20.4426 78.8891 21.0819 78.0638 21.6778C76.6335 22.6378 75.0255 23.3002 73.3359 23.6362C72.6015 23.7802 71.8335 23.8426 70.3024 23.9626C66.4576 24.2698 64.5329 24.4234 62.9297 24.9898C61.0961 25.6361 59.4307 26.6852 58.0559 28.0599C56.6812 29.4347 55.6321 31.1001 54.9858 32.9337C54.4194 34.5368 54.2658 36.4616 53.9586 40.3063C53.9035 41.3226 53.7946 42.3352 53.6322 43.3399C53.2962 45.0295 52.6339 46.6374 51.6739 48.0678C51.2563 48.6918 50.7571 49.2774 49.7587 50.4438C47.2579 53.3813 46.0052 54.8501 45.2708 56.3861C43.5764 59.938 43.5764 64.066 45.2708 67.6179C46.0052 69.1539 47.2579 70.6226 49.7587 73.5602C50.7571 74.7266 51.2563 75.3122 51.6739 75.9362C52.6339 77.3665 53.2962 78.9745 53.6322 80.6641C53.7762 81.3985 53.8386 82.1665 53.9586 83.6976C54.2658 87.5424 54.4194 89.4671 54.9858 91.0703C55.6321 92.9039 56.6812 94.5693 58.0559 95.9441C59.4307 97.3188 61.0961 98.3679 62.9297 99.0142C64.5329 99.5806 66.4576 99.7342 70.3024 100.041C71.8335 100.161 72.6015 100.224 73.3359 100.368C75.0255 100.704 76.6335 101.371 78.0638 102.326C78.6878 102.744 79.2734 103.243 80.4398 104.241C83.3773 106.742 84.8461 107.995 86.3821 108.729C89.934 110.424 94.062 110.424 97.6139 108.729C99.1499 107.995 100.619 106.742 103.556 104.241C104.723 103.243 105.308 102.744 105.932 102.326C107.363 101.366 108.971 100.704 110.66 100.368C111.394 100.224 112.162 100.161 113.694 100.041C117.538 99.7342 119.463 99.5806 121.066 99.0142C122.9 98.3679 124.565 97.3188 125.94 95.9441C127.315 94.5693 128.364 92.9039 129.01 91.0703C129.577 89.4671 129.73 87.5424 130.037 83.6976C130.157 82.1665 130.22 81.3985 130.364 80.6641C130.7 78.9745 131.367 77.3665 132.322 75.9362C132.74 75.3122 133.239 74.7266 134.237 73.5602C136.738 70.6226 137.991 69.1539 138.725 67.6179C140.42 64.066 140.42 59.938 138.725 56.3861C137.991 54.8501 136.738 53.3813 134.237 50.4438C133.557 49.6862 132.918 48.8931 132.322 48.0678C131.362 46.6377 130.696 45.0304 130.364 43.3399C130.201 42.3352 130.093 41.3226 130.037 40.3063C129.73 36.4616 129.577 34.5368 129.01 32.9337C128.364 31.1001 127.315 29.4347 125.94 28.0599C124.565 26.6852 122.9 25.6361 121.066 24.9898C119.463 24.4234 117.538 24.2698 113.694 23.9626C112.677 23.9075 111.665 23.7985 110.66 23.6362C108.97 23.3042 107.362 22.6384 105.932 21.6778C105.107 21.0819 104.314 20.4426 103.556 19.7627C100.619 17.2619 99.1499 16.0091 97.6139 15.2748C95.8607 14.4356 93.9417 14 91.998 14C90.0543 14 88.1353 14.4356 86.3821 15.2748C84.8461 16.0091 83.3773 17.2619 80.4398 19.7627ZM112.988 51.7446C113.666 51.002 114.032 50.0265 114.01 49.021C113.987 48.0156 113.578 47.0575 112.866 46.3464C112.155 45.6352 111.197 45.2256 110.192 45.203C109.186 45.1803 108.211 45.5463 107.468 46.2246L84.1885 69.5043L76.5279 61.8484C75.7854 61.17 74.8099 60.804 73.8044 60.8267C72.7989 60.8494 71.8408 61.2589 71.1297 61.9701C70.4185 62.6813 70.009 63.6393 69.9863 64.6448C69.9636 65.6503 70.3296 66.6258 71.008 67.3683L81.4238 77.7841C82.1563 78.5151 83.1489 78.9257 84.1837 78.9257C85.2186 78.9257 86.2112 78.5151 86.9437 77.7841L112.988 51.7446Z" fill="url(#paint0_linear_20061_6267)"/>
<path d="M78.1361 17.1273L78.171 17.0976C78.3059 16.9828 78.4387 16.8697 78.5694 16.7582C81.1273 14.5788 82.9214 13.0502 84.871 12.1178L78.1361 17.1273ZM78.1361 17.1273L78.102 17.1579M78.1361 17.1273L78.102 17.1579M78.102 17.1579C77.4521 17.7412 76.7725 18.2904 76.0658 18.8034C75.0381 19.4841 73.8807 19.9587 72.658 20.2025C72.167 20.2984 71.626 20.3481 70.0289 20.4733L70.0236 20.4737M78.102 17.1579L70.0236 20.4737M70.0236 20.4737C69.8558 20.4871 69.6905 20.5003 69.5275 20.5132M70.0236 20.4737L69.5275 20.5132M50.4662 40.0721L50.4698 40.0276C50.4832 39.8598 50.4963 39.6945 50.5093 39.5315C50.7768 36.1677 50.9641 33.8117 51.6849 31.7702L50.4662 40.0721ZM50.4662 40.0721L50.4638 40.1168M50.4662 40.0721L50.4638 40.1168M50.4638 40.1168C50.4165 40.9875 50.3243 41.8553 50.1875 42.7165C49.9367 43.9379 49.4551 45.0931 48.7677 46.1174L48.7651 46.1212M50.4638 40.1168L48.7651 46.1212M48.7651 46.1212C48.4884 46.5347 48.1468 46.9446 47.0998 48.1678L47.0936 48.175M48.7651 46.1212L47.0936 48.175M47.0936 48.175C46.9788 48.3099 46.8657 48.4426 46.7543 48.5734C44.5744 51.1319 43.0455 52.9262 42.1131 54.8763L42.1118 54.8792M47.0936 48.175L42.1118 54.8792M42.1118 54.8792C39.9627 59.3843 39.9627 64.6197 42.1118 69.1248L42.1131 69.1276M42.1118 54.8792L42.1131 69.1276M42.1131 69.1276C43.0455 71.0777 44.5744 72.8721 46.7542 75.4305C46.8657 75.5613 46.9788 75.6941 47.0936 75.829L47.0998 75.8362M42.1131 69.1276L47.0998 75.8362M47.0998 75.8362C48.1468 77.0594 48.4884 77.4693 48.7651 77.8828L48.7677 77.8866M47.0998 75.8362L48.7677 77.8866M48.7677 77.8866C49.4653 78.926 49.9509 80.1003 50.1985 81.3418C50.2944 81.8329 50.3442 82.3738 50.4693 83.9711L50.4698 83.9764M48.7677 77.8866L50.4698 83.9764M50.4698 83.9764C50.4832 84.1442 50.4963 84.3095 50.5093 84.4725C50.7768 87.8363 50.9641 90.1923 51.6849 92.2338M50.4698 83.9764L54.9858 91.0703M70.0289 103.531L70.0236 103.53C69.8558 103.517 69.6905 103.504 69.5275 103.491C66.1624 103.223 63.8059 103.036 61.7638 102.314M70.0289 103.531L58.0559 95.9441C56.6812 94.5693 55.6321 92.9039 54.9858 91.0703M70.0289 103.531C71.6257 103.656 72.1668 103.706 72.6578 103.801C73.8937 104.048 75.0718 104.537 76.1201 105.237C76.5326 105.513 76.9435 105.856 78.1638 106.9L78.171 106.906M70.0289 103.531L78.171 106.906M61.7638 102.314L62.9297 99.0142L61.7662 102.315C61.7654 102.315 61.7646 102.315 61.7638 102.314ZM61.7638 102.314C59.4378 101.494 57.3251 100.163 55.5811 98.4189C53.8364 96.6743 52.5051 94.5608 51.6849 92.2338M51.6849 92.2338C51.6852 92.2346 51.6854 92.2354 51.6857 92.2362L54.9858 91.0703M51.6849 92.2338L54.9858 91.0703M78.171 106.906C78.3059 107.021 78.4387 107.134 78.5695 107.246C81.1279 109.426 82.9223 110.954 84.8724 111.887L84.8752 111.888M78.171 106.906L84.8752 111.888M84.8752 111.888C89.3803 114.037 94.6157 114.037 99.1208 111.888L99.1237 111.887M84.8752 111.888L99.1237 111.887M99.1237 111.887C101.074 110.954 102.868 109.426 105.427 107.246C105.557 107.134 105.69 107.021 105.825 106.906L105.832 106.9M99.1237 111.887L105.832 106.9M105.832 106.9C107.055 105.853 107.465 105.512 107.879 105.235L107.883 105.232M105.832 106.9L107.883 105.232M107.883 105.232C108.922 104.535 110.097 104.049 111.338 103.801C111.829 103.706 112.37 103.656 113.967 103.531L113.972 103.53M107.883 105.232L113.972 103.53M113.972 103.53C114.14 103.517 114.306 103.504 114.469 103.491C117.834 103.223 120.19 103.036 122.232 102.314M113.972 103.53L121.066 99.0142M133.527 83.9711L133.526 83.9764C133.513 84.1441 133.5 84.3094 133.487 84.4724C133.219 87.8376 133.032 90.1941 132.31 92.2362M133.527 83.9711L125.94 95.9441C124.565 97.3188 122.9 98.3679 121.066 99.0142M133.527 83.9711C133.652 82.3731 133.702 81.8324 133.798 81.3412C134.044 80.1067 134.532 78.9301 135.231 77.8828C135.508 77.4693 135.849 77.0594 136.896 75.8362L136.902 75.829M133.527 83.9711L136.902 75.829M132.31 92.2362L129.01 91.0703L132.311 92.2338C132.311 92.2346 132.311 92.2354 132.31 92.2362ZM132.31 92.2362C131.49 94.5622 130.159 96.6749 128.415 98.4189C126.671 100.163 124.558 101.494 122.232 102.314M122.232 102.314L121.066 99.0142M122.232 102.314C122.231 102.315 122.231 102.315 122.23 102.315L121.066 99.0142M136.902 75.829C137.017 75.694 137.13 75.5612 137.242 75.4304C139.422 72.872 140.951 71.0777 141.883 69.1276L141.884 69.1248M136.902 75.829L141.884 69.1248M141.884 69.1248C144.033 64.6197 144.033 59.3843 141.884 54.8792L141.883 54.8763M141.884 69.1248L141.883 54.8763M141.883 54.8763C140.951 52.9263 139.422 51.132 137.242 48.5736C137.13 48.4428 137.017 48.3099 136.902 48.175L136.873 48.1401M141.883 54.8763L136.873 48.1401M136.873 48.1401L136.842 48.106M136.873 48.1401L136.842 48.106M136.842 48.106C136.259 47.4559 135.709 46.7761 135.196 46.0693C134.522 45.0529 134.051 43.9157 133.809 42.7205C133.672 41.858 133.58 40.9889 133.532 40.1168L133.53 40.0721M136.842 48.106L133.53 40.0721M133.53 40.0721L133.526 40.0276M133.53 40.0721L133.526 40.0276M111.279 20.1908C112.142 20.328 113.011 20.4204 113.883 20.4677L113.928 20.4702L113.972 20.4737C114.14 20.4871 114.306 20.5003 114.469 20.5132C117.833 20.7808 120.189 20.9682 122.231 21.6893L111.279 20.1908ZM111.279 20.1908C110.084 19.9486 108.947 19.4777 107.931 18.8039C107.224 18.2907 106.544 17.7414 105.894 17.1579L105.86 17.1273L105.825 17.0976C105.69 16.9828 105.557 16.8697 105.427 16.7582C102.869 14.5788 101.075 13.0502 99.125 12.1177C96.9 11.0528 94.4647 10.5 91.998 10.5C89.5318 10.5 87.097 11.0526 84.8724 12.1171L111.279 20.1908ZM133.526 40.0276C133.513 39.8598 133.5 39.6945 133.487 39.5316M133.526 40.0276L133.487 39.5316M69.5275 20.5132C66.1637 20.7807 63.8077 20.9681 61.7662 21.6888L69.5275 20.5132ZM133.487 39.5316C133.219 36.1664 133.032 33.8099 132.31 31.7678M133.487 39.5316L132.31 31.7678M132.31 31.7678C131.49 29.4417 130.159 27.3291 128.415 25.585M132.31 31.7678C132.311 31.7686 132.311 31.7694 132.311 31.7702L129.01 32.9337L128.415 25.585M128.415 25.585C126.671 23.841 124.558 22.51 122.232 21.6897L128.415 25.585ZM81.7144 71.9799L84.1893 74.4532L86.6634 71.9791L109.859 48.7839C109.931 48.7291 110.021 48.7 110.113 48.7021C110.218 48.7044 110.317 48.7471 110.391 48.8212C110.466 48.8953 110.508 48.9952 110.511 49.0999C110.513 49.1918 110.484 49.2812 110.429 49.354L84.4713 75.3068C84.4711 75.307 84.4708 75.3073 84.4706 75.3075C84.3943 75.3832 84.2912 75.4257 84.1837 75.4257C84.0759 75.4257 83.9725 75.3829 83.8962 75.3068L73.5672 64.9778C73.5124 64.905 73.4833 64.8156 73.4854 64.7237C73.4878 64.6189 73.5304 64.5191 73.6045 64.445L71.1297 61.9701L73.6045 64.445C73.6787 64.3709 73.7785 64.3282 73.8833 64.3258C73.9752 64.3238 74.0648 64.3529 74.1376 64.4078L81.7144 71.9799ZM61.7638 21.6897C59.4378 22.51 57.3251 23.841 55.5811 25.585C53.8367 27.3294 52.5055 29.4425 51.6853 31.769L61.7638 21.6897Z" stroke="white" stroke-width="7"/>
</g>
<defs>
<linearGradient id="paint0_linear_20061_6267" x1="91.998" y1="14" x2="91.998" y2="110" gradientUnits="userSpaceOnUse">
<stop stop-color="#F1B500"/>
<stop offset="1" stop-color="#F18D00"/>
</linearGradient>
</defs>
</svg>
