<svg width="32" height="32" viewBox="0 0 32 32" fill="none" xmlns="http://www.w3.org/2000/svg">
<g clip-path="url(#clip0_20685_1087)">
<circle cx="16" cy="16" r="16" fill="#2E2721"/>
<path d="M16 14.5C17.6569 14.5 19 13.1569 19 11.5C19 9.84315 17.6569 8.5 16 8.5C14.3431 8.5 13 9.84315 13 11.5C13 13.1569 14.3431 14.5 16 14.5Z" fill="white" fill-opacity="0.9"/>
<path d="M9.4043 20.1629C10.394 19.2079 11.6097 18.5154 12.9021 18.034C13.2324 17.9107 13.5722 17.8087 13.9215 17.7281C14.5905 17.5788 15.2861 17.5 16.0001 17.5C16.7141 17.5 17.4097 17.5788 18.0787 17.7281C18.428 17.8087 18.7678 17.9107 19.0981 18.034C20.3876 18.5155 21.6053 19.2071 22.5957 20.1627C22.5262 20.2373 22.4553 20.3107 22.3831 20.383C21.5724 21.193 20.6197 21.8317 19.5251 22.299C18.4304 22.7663 17.2554 23 16.0001 23C14.7447 23 13.5697 22.7663 12.4751 22.299C11.3804 21.8317 10.4277 21.193 9.61707 20.383C9.54478 20.3108 9.47385 20.2374 9.4043 20.1629Z" fill="white" fill-opacity="0.9"/>
</g>
<defs>
<clipPath id="clip0_20685_1087">
<rect width="32" height="32" fill="white"/>
</clipPath>
</defs>
</svg>
