<svg width="24" height="24" viewBox="0 0 24 24" fill="none" xmlns="http://www.w3.org/2000/svg">
<path d="M10.95 13.4298L9.154 11.6398C9.06067 11.5464 8.947 11.4964 8.813 11.4898C8.67833 11.4831 8.556 11.5351 8.446 11.6458C8.33933 11.7524 8.286 11.8704 8.286 11.9998C8.286 12.1291 8.33933 12.2471 8.446 12.3538L10.384 14.2918C10.546 14.4531 10.7347 14.5338 10.95 14.5338C11.1653 14.5338 11.354 14.4531 11.516 14.2918L15.554 10.2538C15.6513 10.1564 15.7023 10.0418 15.707 9.90977C15.7117 9.7771 15.6607 9.65577 15.554 9.54577C15.444 9.43577 15.325 9.37977 15.197 9.37777C15.069 9.37577 14.9503 9.42977 14.841 9.53977L10.95 13.4298ZM8.67 20.6158L7.354 18.4158L4.873 17.8918C4.67433 17.8551 4.516 17.7484 4.398 17.5718C4.28 17.3958 4.23133 17.2084 4.252 17.0098L4.489 14.4538L2.806 12.5338C2.66467 12.3891 2.594 12.2111 2.594 11.9998C2.594 11.7884 2.66467 11.6104 2.806 11.4658L4.489 9.54577L4.252 6.99077C4.232 6.79144 4.28067 6.60377 4.398 6.42777C4.516 6.25177 4.67433 6.1451 4.873 6.10777L7.353 5.58477L8.669 3.38477C8.777 3.2061 8.922 3.08277 9.104 3.01477C9.286 2.9461 9.47433 2.9551 9.669 3.04177L12 4.02677L14.33 3.04177C14.5253 2.9551 14.714 2.9461 14.896 3.01477C15.078 3.08277 15.223 3.2061 15.331 3.38477L16.646 5.58477L19.127 6.10777C19.3257 6.1451 19.484 6.25177 19.602 6.42777C19.72 6.60377 19.7687 6.79144 19.748 6.99077L19.512 9.54577L21.194 11.4658C21.3353 11.6104 21.406 11.7884 21.406 11.9998C21.406 12.2111 21.3353 12.3894 21.194 12.5348L19.512 14.4538L19.748 17.0088C19.768 17.2081 19.7193 17.3958 19.602 17.5718C19.484 17.7484 19.3257 17.8551 19.127 17.8918L16.647 18.4158L15.331 20.6158C15.223 20.7938 15.078 20.9171 14.896 20.9858C14.714 21.0544 14.5257 21.0451 14.331 20.9578L12 19.9728L9.67 20.9578C9.47467 21.0444 9.286 21.0534 9.104 20.9848C8.922 20.9168 8.777 20.7934 8.669 20.6148M9.45 19.9498L12 18.8888L14.562 19.9498L16 17.5498L18.75 16.9388L18.5 14.0998L20.35 11.9998L18.5 9.88877L18.75 7.04977L16 6.44977L14.55 4.04977L12 5.11177L9.439 4.04977L8 6.44977L5.25 7.04977L5.5 9.88877L3.65 11.9998L5.5 14.0998L5.25 16.9498L8 17.5498L9.45 19.9498Z" fill="#F16400"/>
</svg>
