<svg width="25" height="24" viewBox="0 0 25 24" fill="none" xmlns="http://www.w3.org/2000/svg">
<path d="M15.9461 12.646L15.1501 11.85C15.3001 10.9766 15.0528 10.221 14.4081 9.58297C13.7635 8.94497 13.0108 8.70064 12.1501 8.84997L11.3541 8.05397C11.5221 7.98464 11.6975 7.93264 11.8801 7.89797C12.0628 7.8633 12.2695 7.84597 12.5001 7.84597C13.5195 7.84597 14.3831 8.2003 15.0911 8.90897C15.7991 9.61764 16.1535 10.4813 16.1541 11.5C16.1541 11.7306 16.1368 11.944 16.1021 12.14C16.0675 12.3353 16.0155 12.504 15.9461 12.646ZM19.1081 15.719L18.3501 15.05C18.9835 14.5666 19.5461 14.0373 20.0381 13.462C20.5301 12.8866 20.9508 12.2326 21.3001 11.5C20.4668 9.81664 19.2708 8.4793 17.7121 7.48797C16.1535 6.49664 14.4161 6.00064 12.5001 5.99997C12.0168 5.99997 11.5418 6.0333 11.0751 6.09997C10.6085 6.16664 10.1501 6.26664 9.70015 6.39997L8.92015 5.61997C9.50015 5.39997 10.0908 5.24164 10.6921 5.14497C11.2935 5.0483 11.8961 4.99997 12.5001 4.99997C14.6708 4.99997 16.6561 5.59664 18.4561 6.78997C20.2561 7.98264 21.5785 9.55264 22.4231 11.5C22.0658 12.304 21.6131 13.0593 21.0651 13.766C20.5171 14.4726 19.8648 15.1236 19.1081 15.719ZM20.2231 21.139L16.3311 17.258C15.8885 17.454 15.3395 17.6266 14.6841 17.776C14.0281 17.9253 13.3001 18 12.5001 18C10.3168 18 8.33148 17.4033 6.54415 16.21C4.75748 15.0173 3.43515 13.4473 2.57715 11.5C2.96582 10.6166 3.47815 9.7893 4.11415 9.01797C4.74948 8.24664 5.42815 7.59964 6.15015 7.07697L3.36115 4.27697L4.06915 3.56897L20.9311 20.431L20.2231 21.139ZM6.85815 7.78497C6.28482 8.1923 5.69882 8.72797 5.10015 9.39197C4.50148 10.0566 4.03482 10.7593 3.70015 11.5C4.53348 13.1833 5.72915 14.521 7.28715 15.513C8.84515 16.505 10.5828 17.0006 12.5001 17C13.0768 17 13.6581 16.944 14.2441 16.832C14.8301 16.72 15.2708 16.6066 15.5661 16.492L13.9341 14.85C13.7768 14.9386 13.5571 15.0113 13.2751 15.068C12.9931 15.1246 12.7348 15.1533 12.5001 15.154C11.4808 15.154 10.6171 14.7996 9.90915 14.091C9.20115 13.3823 8.84682 12.5186 8.84615 11.5C8.84615 11.278 8.87482 11.0293 8.93215 10.754C8.98948 10.4786 9.06215 10.2493 9.15015 10.066L6.85815 7.78497Z" fill="currentColor" fill-opacity="0.9"/>
</svg>
