<svg width="24" height="24" viewBox="0 0 24 24" fill="none" xmlns="http://www.w3.org/2000/svg">
<path d="M12.005 15.154C13.021 15.154 13.883 14.7983 14.591 14.087C15.299 13.3757 15.6534 12.512 15.654 11.496C15.6547 10.48 15.299 9.61767 14.587 8.909C13.875 8.20033 13.0114 7.846 11.996 7.846C10.9807 7.846 10.1184 8.20167 9.40903 8.913C8.69969 9.62433 8.34536 10.4883 8.34603 11.505C8.34669 12.5217 8.70236 13.3837 9.41303 14.091C10.1237 14.7983 10.9877 15.1527 12.005 15.154ZM12 14.2C11.25 14.2 10.6127 13.9377 10.088 13.413C9.56336 12.8883 9.30069 12.2507 9.30003 11.5C9.29936 10.7493 9.56203 10.112 10.088 9.588C10.614 9.064 11.2514 8.80133 12 8.8C12.7487 8.79867 13.3864 9.06133 13.913 9.588C14.4397 10.1147 14.702 10.752 14.7 11.5C14.698 12.248 14.4357 12.8857 13.913 13.413C13.3904 13.9403 12.7527 14.2027 12 14.2ZM12.003 18C9.83636 18 7.86236 17.4107 6.08103 16.232C4.29969 15.0533 2.96503 13.476 2.07703 11.5C2.96369 9.524 4.29736 7.94667 6.07803 6.768C7.85869 5.58933 9.83203 5 11.998 5C14.164 5 16.1377 5.58933 17.919 6.768C19.7004 7.94667 21.035 9.524 21.923 11.5C21.0364 13.476 19.7027 15.0533 17.922 16.232C16.1414 17.4107 14.168 18 12.002 18M12 17C13.8834 17 15.6127 16.5043 17.188 15.513C18.7634 14.5217 19.9674 13.184 20.8 11.5C19.9667 9.81667 18.7624 8.47933 17.187 7.488C15.6117 6.49667 13.8827 6.00067 12 6C10.1174 5.99933 8.38836 6.49533 6.81303 7.488C5.23769 8.48067 4.03336 9.818 3.20003 11.5C4.03336 13.1833 5.23769 14.521 6.81303 15.513C8.38836 16.505 10.1174 17.0007 12 17Z" fill="currentColor" fill-opacity="0.9"/>
</svg>
