<svg width="24" height="24" viewBox="0 0 24 24" fill="none" xmlns="http://www.w3.org/2000/svg">
<path d="M5 17V19V5V17ZM5.616 20C5.168 20 4.78667 19.8427 4.472 19.528C4.15733 19.2133 4 18.8323 4 18.385V5.615C4 5.16833 4.15733 4.78733 4.472 4.472C4.78667 4.15733 5.168 4 5.616 4H18.385C18.8317 4 19.2127 4.15733 19.528 4.472C19.8427 4.78667 20 5.168 20 5.616V8.558H19V5.616C19 5.436 18.9423 5.28833 18.827 5.173C18.7117 5.05767 18.5643 5 18.385 5H5.615C5.43567 5 5.28833 5.05767 5.173 5.173C5.05767 5.28833 5 5.436 5 5.616V18.385C5 18.5643 5.05767 18.7117 5.173 18.827C5.28833 18.9423 5.436 19 5.616 19H18.385C18.5643 19 18.7117 18.9423 18.827 18.827C18.9423 18.7117 19 18.5643 19 18.385V15.442H20V18.385C20 18.8317 19.8427 19.2127 19.528 19.528C19.2133 19.8427 18.8323 20 18.385 20H5.616ZM13.616 16C13.168 16 12.7867 15.8427 12.472 15.528C12.1573 15.2133 12 14.8323 12 14.385V9.615C12 9.16833 12.1573 8.78733 12.472 8.472C12.7867 8.15733 13.168 8 13.616 8H19.385C19.8317 8 20.2127 8.15733 20.528 8.472C20.8427 8.78667 21 9.168 21 9.616V14.385C21 14.8317 20.8427 15.2127 20.528 15.528C20.2133 15.8427 19.8323 16 19.385 16H13.616ZM19.385 15C19.5643 15 19.7117 14.9423 19.827 14.827C19.9423 14.7117 20 14.5643 20 14.385V9.615C20 9.43567 19.9423 9.28833 19.827 9.173C19.7117 9.05767 19.5643 9 19.385 9H13.615C13.4357 9 13.2883 9.05767 13.173 9.173C13.0577 9.28833 13 9.436 13 9.616V14.385C13 14.5643 13.0577 14.7117 13.173 14.827C13.2883 14.9423 13.436 15 13.616 15H19.385ZM16 13.5C16.4167 13.5 16.771 13.3543 17.063 13.063C17.355 12.7717 17.5007 12.4173 17.5 12C17.4993 11.5827 17.3537 11.2287 17.063 10.938C16.7723 10.6473 16.418 10.5013 16 10.5C15.582 10.4987 15.228 10.6447 14.938 10.938C14.648 11.2313 14.502 11.5853 14.5 12C14.498 12.4147 14.644 12.769 14.938 13.063C15.232 13.357 15.586 13.5027 16 13.5Z" fill="#F1B500"/>
</svg>
